<mxfile host="www.draw.io" modified="2020-02-22T19:11:37.329Z" agent="Mozilla/5.0 (Windows NT 10.0; Win64; x64) AppleWebKit/537.36 (KHTML, like Gecko) Chrome/79.0.3945.130 Safari/537.36" etag="B_Sc8_e4U2MvZJe5hv9Q" version="12.7.4" type="github">
  <diagram id="CLRaHryyYa0xOvTVhCor" name="Page-1">
    <mxGraphModel dx="706" dy="446" grid="1" gridSize="10" guides="1" tooltips="1" connect="1" arrows="1" fold="1" page="1" pageScale="1" pageWidth="850" pageHeight="1100" math="0" shadow="0">
      <root>
        <mxCell id="0" />
        <mxCell id="1" parent="0" />
        <mxCell id="xvll8Nh_N9pdd9aSw5_w-8" value="-" style="group" parent="1" vertex="1" connectable="0">
          <mxGeometry x="210" y="30" width="380" height="250" as="geometry" />
        </mxCell>
        <mxCell id="xvll8Nh_N9pdd9aSw5_w-6" value="Product" style="text;html=1;align=center;verticalAlign=middle;whiteSpace=wrap;rounded=0;strokeColor=#000000;fillColor=#ffffff;" parent="xvll8Nh_N9pdd9aSw5_w-8" vertex="1">
          <mxGeometry width="380" height="17.16" as="geometry" />
        </mxCell>
        <mxCell id="xvll8Nh_N9pdd9aSw5_w-7" value="&amp;nbsp; -&amp;nbsp; String: productID&lt;br&gt;&amp;nbsp; -&amp;nbsp; String: description&lt;br&gt;&amp;nbsp; -&amp;nbsp; double: purchasePrice&lt;br&gt;&amp;nbsp; -&amp;nbsp; double: salePrice&lt;br&gt;&amp;nbsp;+&amp;nbsp; int: getProductNumber()&lt;br&gt;&amp;nbsp;+&amp;nbsp; String: getDescription()&lt;br&gt;&amp;nbsp;+&amp;nbsp; String: getData()&lt;br&gt;&amp;nbsp;+&amp;nbsp; double: getPurchasePrice()&lt;br&gt;&amp;nbsp;+&amp;nbsp; double: getSalePrice()&lt;br&gt;&amp;nbsp;+&amp;nbsp; void: setProductNumber()&lt;br&gt;&amp;nbsp;+&amp;nbsp; void: setDescription()&lt;br&gt;&amp;nbsp;+&amp;nbsp; void: setData()&lt;br&gt;&amp;nbsp;+&amp;nbsp; void: setData(String, double _purchasePrice, double _salePrice)&lt;br&gt;&amp;nbsp;+&amp;nbsp; void: setPurchasePrice()&lt;br&gt;&amp;nbsp;+&amp;nbsp; void: setSalePrice()" style="text;html=1;align=left;verticalAlign=middle;whiteSpace=wrap;rounded=0;strokeColor=#000000;fillColor=#ffffff;" parent="xvll8Nh_N9pdd9aSw5_w-8" vertex="1">
          <mxGeometry y="17.15" width="380" height="232.85" as="geometry" />
        </mxCell>
      </root>
    </mxGraphModel>
  </diagram>
</mxfile>
